<?xml version="1.0" encoding="UTF-8"?>
<svg version="1.1" xmlns="http://www.w3.org/2000/svg" width="512" height="512">
<path d="M0 0 C1.17126662 -0.00445784 2.34253325 -0.00891569 3.5492928 -0.01350862 C4.82689623 -0.01332426 6.10449965 -0.01313989 7.42081833 -0.01294994 C8.79910216 -0.01625188 10.17738503 -0.01997814 11.55566669 -0.02409142 C15.33828982 -0.03408257 19.12089709 -0.03782357 22.90353155 -0.04048073 C26.98561491 -0.04439251 31.06768582 -0.0539704 35.1497612 -0.0626936 C45.00727639 -0.08243602 54.86479257 -0.09252257 64.72232258 -0.10142139 C69.37024256 -0.10580897 74.0181614 -0.11117466 78.66608047 -0.11641026 C94.12791965 -0.13342227 109.58975813 -0.14791402 125.05160522 -0.155159 C129.0621071 -0.15706874 133.07260896 -0.15898909 137.08311081 -0.16094494 C138.07984278 -0.16142868 139.07657474 -0.16191242 140.10351071 -0.16241082 C156.23145473 -0.17070203 172.35932436 -0.19602369 188.48723593 -0.22852562 C205.0647962 -0.26165979 221.64231875 -0.2796136 238.21991229 -0.28280324 C247.51964732 -0.28496273 256.81927395 -0.29362868 266.11897659 -0.31926441 C274.04324057 -0.34105866 281.96736982 -0.34897929 289.89166036 -0.33929763 C293.92836852 -0.3347777 297.96479923 -0.33650294 302.00146866 -0.35605907 C335.63838972 -0.50973461 363.19336208 5.00479949 388.06455612 29.13422108 C388.73744675 29.73363514 389.41033737 30.3330492 390.10361862 30.95062733 C405.87964649 45.50102753 417.23341086 69.556739 418.19335729 91.01314187 C418.19604014 92.5261208 418.19604014 92.5261208 418.1987772 94.06966496 C418.20323504 95.24093158 418.20769289 96.4121982 418.21228582 97.61895776 C418.21200927 99.53536289 418.21200927 99.53536289 418.21172714 101.49048328 C418.21502908 102.86876712 418.21875534 104.24704999 418.22286862 105.62533164 C418.23285977 109.40795478 418.23660077 113.19056205 418.23925793 116.97319651 C418.24316971 121.05527987 418.2527476 125.13735077 418.26147079 129.21942616 C418.28121322 139.07694134 418.29129977 148.93445753 418.30019858 158.79198754 C418.30458617 163.43990751 418.30995185 168.08782635 418.31518745 172.73574543 C418.33219947 188.19758461 418.34669122 203.65942308 418.3539362 219.12127018 C418.35584594 223.13177205 418.35776629 227.14227392 418.35972214 231.15277576 C418.36020588 232.14950773 418.36068962 233.1462397 418.36118802 234.17317566 C418.36947923 250.30111968 418.39480089 266.42898931 418.42730282 282.55690089 C418.46043699 299.13446115 418.47839079 315.71198371 418.48158044 332.28957725 C418.48373993 341.58931228 418.49240587 350.88893891 418.51804161 360.18864155 C418.53983586 368.11290552 418.54775649 376.03703477 418.53807483 383.96132532 C418.5335549 387.99803348 418.53528014 392.03446419 418.55483627 396.07113361 C418.7085118 429.70805468 413.19397771 457.26302704 389.06455612 482.13422108 C388.46514206 482.8071117 387.865728 483.48000233 387.24814987 484.17328358 C372.69774967 499.94931144 348.6420382 511.30307582 327.18563533 512.26302224 C325.6726564 512.2657051 325.6726564 512.2657051 324.12911224 512.26844215 C322.95784562 512.2729 321.78657899 512.27735784 320.57981944 512.28195077 C319.30221602 512.28176641 318.02461259 512.28158205 316.70829391 512.2813921 C315.33001008 512.28469403 313.95172721 512.28842029 312.57344556 512.29253358 C308.79082242 512.30252473 305.00821515 512.30626573 301.22558069 512.30892289 C297.14349733 512.31283467 293.06142643 512.32241256 288.97935104 512.33113575 C279.12183585 512.35087817 269.26431967 512.36096472 259.40678966 512.36986354 C254.75886969 512.37425112 250.11095085 512.37961681 245.46303177 512.38485241 C230.00119259 512.40186443 214.53935411 512.41635617 199.07750702 512.42360115 C195.06700515 512.4255109 191.05650328 512.42743125 187.04600143 512.42938709 C186.04926947 512.42987083 185.0525375 512.43035457 184.02560154 512.43085297 C167.89765752 512.43914418 151.76978788 512.46446585 135.64187631 512.49696777 C119.06431604 512.53010195 102.48679349 512.54805575 85.90919995 512.55124539 C76.60946492 512.55340489 67.30983829 512.56207083 58.01013565 512.58770657 C50.08587168 512.60950081 42.16174243 512.61742145 34.23745188 512.60773978 C30.20074372 512.60321985 26.16431301 512.6049451 22.12764359 512.62450123 C-11.50927748 512.77817676 -39.06424984 507.26364266 -63.93544388 483.13422108 C-64.6083345 482.53480701 -65.28122513 481.93539295 -65.97450638 481.31781483 C-81.75053424 466.76741463 -93.10429862 442.71170316 -94.06424505 421.25530028 C-94.06603362 420.24664767 -94.06782219 419.23799505 -94.06966496 418.1987772 C-94.0741228 417.02751057 -94.07858064 415.85624395 -94.08317357 414.6494844 C-94.08289703 412.73307926 -94.08289703 412.73307926 -94.0826149 410.77795887 C-94.08591683 409.39967504 -94.08964309 408.02139216 -94.09375638 406.64311051 C-94.10374753 402.86048738 -94.10748853 399.0778801 -94.11014569 395.29524565 C-94.11405747 391.21316228 -94.12363536 387.13109138 -94.13235855 383.049016 C-94.15210097 373.19150081 -94.16218753 363.33398463 -94.17108634 353.47645462 C-94.17547393 348.82853464 -94.18083961 344.1806158 -94.18607521 339.53269672 C-94.20308723 324.07085755 -94.21757897 308.60901907 -94.22482395 293.14717197 C-94.2267337 289.1366701 -94.22865405 285.12616824 -94.23060989 281.11566639 C-94.23109363 280.11893442 -94.23157737 279.12220246 -94.23207577 278.09526649 C-94.24036698 261.96732247 -94.26568865 245.83945284 -94.29819057 229.71154127 C-94.33132475 213.133981 -94.34927855 196.55645845 -94.35246819 179.97886491 C-94.35462769 170.67912988 -94.36329363 161.37950324 -94.38892937 152.07980061 C-94.41072362 144.15553663 -94.41864425 136.23140738 -94.40896259 128.30711684 C-94.40444266 124.27040868 -94.4061679 120.23397796 -94.42572403 116.19730854 C-94.57939956 82.56038748 -89.06486547 55.00541512 -64.93544388 30.13422108 C-64.33602982 29.46133045 -63.73661575 28.78843983 -63.11903763 28.09515858 C-47.86332061 11.55440276 -22.49143658 0.03988243 0 0 Z " fill="#44A4AF" transform="translate(93.93544387817383,-0.13422107696533203)"/>
<path d="M0 0 C0 19.14 0 38.28 0 58 C1.98 57.67 3.96 57.34 6 57 C7.47189593 56.84794197 8.94618899 56.71705308 10.42211914 56.61108398 C11.2405983 56.55109726 12.05907745 56.49111053 12.90235901 56.42930603 C13.7711821 56.36884598 14.64000519 56.30838593 15.53515625 56.24609375 C16.45026474 56.18092056 17.36537323 56.11574738 18.30821228 56.04859924 C20.24207331 55.91186118 22.17604168 55.77663366 24.11010742 55.64282227 C27.02889647 55.43983694 29.94704573 55.22899817 32.86523438 55.01757812 C42.59456968 54.32875079 52.24123835 53.7620375 62 54 C61.42128908 61.82660622 60.33870899 69.4684724 58.9375 77.1875 C58.75123047 78.23486328 58.56496094 79.28222656 58.37304688 80.36132812 C57.9194729 82.90832045 57.46093019 85.4543322 57 88 C45.23588372 88.22879967 33.49722423 87.54809344 21.75 87 C19.63673011 86.90339708 17.52344892 86.80704083 15.41015625 86.7109375 C10.27330284 86.47680356 5.13661399 86.23932675 0 86 C0.08405999 103.6726812 0.1792517 121.34526319 0.28752708 139.01781178 C0.33754976 147.22433948 0.38399346 155.4308577 0.421875 163.63745117 C0.45491966 170.79419127 0.49481882 177.95085553 0.54279006 185.1075117 C0.56793166 188.8933801 0.58974862 192.67919901 0.60334396 196.46512794 C0.61627729 200.03644647 0.63845007 203.60759415 0.66738319 207.17881775 C0.68062254 209.09823797 0.68435854 211.01771659 0.68769836 212.93717957 C0.80309817 227.09609973 0.80309817 227.09609973 6 240 C12.41703952 246.24360602 19.54763256 246.41990065 27.98266602 246.35693359 C42.65830428 245.99442661 54.46028638 238.96761354 67 232 C70.27488115 235.02744569 72.57563198 238.18362154 74.875 242 C75.51179687 243.03125 76.14859375 244.0625 76.8046875 245.125 C78 248 78 248 77.55078125 250.0859375 C62.94515822 268.1130289 30.32272739 285.57994522 7.57666016 288.28857422 C-11.81665943 289.69411294 -32.00096702 285.64679305 -47.40234375 273.390625 C-51.1145478 269.97428082 -53.66518332 266.45025461 -56 262 C-56.36351562 261.3503125 -56.72703125 260.700625 -57.1015625 260.03125 C-65.95038297 242.46870555 -64.53949421 222.65210143 -64.40557575 203.58308101 C-64.38030261 199.36844794 -64.37819994 195.15379933 -64.37347412 190.93910217 C-64.36111953 182.98513473 -64.32840152 175.03139134 -64.28807616 167.07752186 C-64.24312216 158.0108265 -64.22131245 148.94411954 -64.20129442 139.8773402 C-64.15966074 121.2514303 -64.08863682 102.62574152 -64 84 C-72.91 84 -81.82 84 -91 84 C-91.495 81.628125 -91.99 79.25625 -92.5 76.8125 C-92.65662109 76.07491455 -92.81324219 75.3373291 -92.97460938 74.57739258 C-93.70622126 70.99433304 -94.17038305 67.65613624 -94 64 C-84.51863166 60.26175125 -74.82745439 57.66006284 -65 55 C-64.67 46.42 -64.34 37.84 -64 29 C-61.916875 28.030625 -59.83375 27.06125 -57.6875 26.0625 C-53.33213127 24.03552461 -48.9830166 21.99727498 -44.65234375 19.91796875 C-34.28166936 14.94656492 -23.81881485 10.2254814 -13.27587891 5.62988281 C-12.25800293 5.18612305 -11.24012695 4.74236328 -10.19140625 4.28515625 C-9.28592041 3.89207275 -8.38043457 3.49898926 -7.44750977 3.09399414 C-5.86090025 2.38480739 -4.28919522 1.64087672 -2.73803711 0.85717773 C-1 0 -1 0 0 0 Z " fill="#FDFEFE" transform="translate(263,112)"/>
</svg>
